<?xml version="1.0" encoding="utf-8"?>
<!-- Generator: Adobe Illustrator 16.0.3, SVG Export Plug-In . SVG Version: 6.00 Build 0)  -->
<!DOCTYPE svg PUBLIC "-//W3C//DTD SVG 1.1//EN" "http://www.w3.org/Graphics/SVG/1.1/DTD/svg11.dtd">
<svg version="1.1" xmlns="http://www.w3.org/2000/svg" xmlns:xlink="http://www.w3.org/1999/xlink" x="0px" y="0px"
	 width="318.854px" height="159.521px" viewBox="0 0 318.854 159.521" enable-background="new 0 0 318.854 159.521"
	 xml:space="preserve">
<g id="Layer_1">
	<path fill="#FFFFFF" d="M264.719,31.804c-5.801,4.74-9.51,11.944-9.51,20.018c0,3.033,0.551,5.927,1.512,8.634l31.109-1.354
		C289.273,41.063,274.648,34.161,264.719,31.804z"/>
	<path fill="#FFFFFF" d="M259.684,66.352c4.65,6.821,12.482,11.305,21.361,11.305c0.354,0,0.695-0.039,1.043-0.051
		c3.109-6.256,4.838-11.696,5.508-16.422L259.684,66.352z"/>
	<path fill="#FFFFFF" d="M306.881,51.821c0-2.447-0.361-4.807-0.998-7.054l-24.541-5.604h22.213
		c-4.43-7.859-12.842-13.179-22.51-13.179c-6.193,0-11.875,2.186-16.326,5.818c9.93,2.357,24.555,9.26,23.111,27.298l14.408-0.627
		l-14.643,2.709c-0.67,4.727-2.398,10.167-5.508,16.422C295.871,77.05,306.881,65.739,306.881,51.821z"/>
	<g>
		<path fill="#FFFFFF" d="M32.22,120.823c0,0.121-0.02,0.238-0.02,0.357c0,1.287,0.633,1.902,1.9,1.902
			c1.229,0,2.021-0.83,2.021-2.059c0-1.109-0.476-1.486-1.466-1.902c-1.724-0.754-2.733-1.291-2.733-3.092
			c0-2.061,1.268-3.365,3.348-3.365c1.961,0,3.188,1.068,3.188,2.633c0,0.178-0.019,0.377-0.04,0.594h-1.406c0-0.02,0-0.039,0-0.059
			c0-1.209-0.594-1.84-1.762-1.84c-1.11,0-1.763,0.75-1.763,1.84c0,1.209,0.831,1.367,2.376,2.1
			c1.268,0.596,1.881,1.367,1.881,2.814c0,2.375-1.545,3.762-3.743,3.762c-2.079,0-3.327-1.148-3.327-2.973
			c0-0.078,0.02-0.314,0.04-0.713H32.22z"/>
		<path fill="#FFFFFF" d="M60.781,115.198c0.792-1.684,1.94-2.533,3.506-2.533c2.316,0,3.584,1.305,3.584,3.742
			c0,1.979-0.613,4.416-1.288,5.744c-0.792,1.564-1.98,2.318-3.586,2.318c-2.277,0-3.426-1.248-3.426-3.783
			C59.572,118.884,60.067,116.704,60.781,115.198z M62.207,115.872c-0.634,1.566-1.031,3.547-1.031,4.852
			c0,1.529,0.654,2.318,1.902,2.318c1.148,0,1.822-0.674,2.297-2.098c0.654-2,0.893-3.805,0.893-4.656
			c0-1.445-0.713-2.219-1.961-2.219C63.355,114.069,62.702,114.663,62.207,115.872z"/>
		<path fill="#FFFFFF" d="M91.562,109.257h1.584l-3.148,14.855h-1.584L91.562,109.257z"/>
		<path fill="#FFFFFF" d="M114.239,122.032c0,0.654,0.457,1.109,1.247,1.109c0.971,0,2-0.611,2.732-1.822l1.764-8.299h1.564
			l-2.357,11.092h-1.484l0.277-1.248c-0.932,1.01-1.941,1.506-3.03,1.506c-1.484,0-2.297-0.732-2.297-2.002
			c0-0.393,0.039-0.789,0.139-1.225l1.723-8.123h1.563l-1.702,8.041C114.28,121.56,114.239,121.874,114.239,122.032z"/>
		<path fill="#FFFFFF" d="M143.631,122.253c0,0.512,0.238,0.75,0.754,0.75c0.277,0,0.592-0.057,0.93-0.1l-0.297,1.387
			c-0.355,0.1-0.693,0.119-0.992,0.119c-1.326,0-2.039-0.574-2.039-1.684c0-0.416,0.119-0.852,0.219-1.348l1.543-7.17h-1.307
			l0.258-1.188h1.309l0.633-2.951h1.564l-0.633,2.951h1.682L147,114.208h-1.686l-1.604,7.447
			C143.65,121.976,143.631,122.19,143.631,122.253z"/>
		<path fill="#FFFFFF" d="M166.33,124.112l2.355-11.092h1.605l-2.357,11.092H166.33z M169.518,109.118h1.605l-0.416,1.922h-1.584
			L169.518,109.118z"/>
		<path fill="#FFFFFF" d="M192.018,115.198c0.791-1.684,1.941-2.533,3.506-2.533c2.318,0,3.584,1.305,3.584,3.742
			c0,1.979-0.613,4.416-1.287,5.744c-0.791,1.564-1.98,2.318-3.584,2.318c-2.277,0-3.428-1.248-3.428-3.783
			C190.809,118.884,191.307,116.704,192.018,115.198z M193.445,115.872c-0.637,1.566-1.031,3.547-1.031,4.852
			c0,1.529,0.652,2.318,1.9,2.318c1.15,0,1.824-0.674,2.299-2.098c0.652-2,0.891-3.805,0.891-4.656c0-1.445-0.713-2.219-1.961-2.219
			C194.592,114.069,193.939,114.663,193.445,115.872z"/>
		<path fill="#FFFFFF" d="M219.59,124.112l2.357-11.092h1.484l-0.277,1.268c0.932-1.012,1.961-1.504,3.051-1.504
			c1.484,0,2.297,0.73,2.297,1.998c0,0.396-0.059,0.793-0.156,1.229l-1.725,8.102h-1.564l1.703-8.021
			c0.098-0.496,0.139-0.832,0.139-0.99c0-0.652-0.455-1.107-1.248-1.107c-1.445,0-2.438,1.324-2.732,1.84l-1.764,8.279H219.59z"/>
		<path fill="#FFFFFF" d="M250.586,120.823c0,0.121-0.02,0.238-0.02,0.357c0,1.287,0.633,1.902,1.902,1.902
			c1.227,0,2.02-0.83,2.02-2.059c0-1.109-0.477-1.486-1.465-1.902c-1.725-0.754-2.734-1.291-2.734-3.092
			c0-2.061,1.266-3.365,3.348-3.365c1.961,0,3.189,1.068,3.189,2.633c0,0.178-0.021,0.377-0.041,0.594h-1.406
			c0-0.02,0-0.039,0-0.059c0-1.209-0.594-1.84-1.764-1.84c-1.109,0-1.762,0.75-1.762,1.84c0,1.209,0.832,1.367,2.377,2.1
			c1.268,0.596,1.881,1.367,1.881,2.814c0,2.375-1.545,3.762-3.744,3.762c-2.078,0-3.326-1.148-3.326-2.973
			c0-0.078,0.02-0.314,0.039-0.713H250.586z"/>
	</g>
	<path fill="#FFFFFF" d="M156.41,85.255c0.016,0,0.029,0,0.043,0c0.016-0.057,0.02-0.121,0.035-0.184L156.41,85.255z"/>
	<g>
		<path fill="#FFFFFF" d="M52.983,79.817c-6.913-3.047-10.371-3.813-10.371-6.213c0-1.582,1.523-2.873,3.81-2.873
			c3.34,0,5.098,1.408,5.449,4.221H64.47c-0.645-8.555-7.03-13.651-17.814-13.651c-10.781,0-16.877,4.863-16.877,12.774
			c0,3.852,1.479,6.512,4.355,8.791c7.443-0.07,15.463-0.115,23.934-0.115C56.678,81.681,55.003,80.702,52.983,79.817z"/>
		<path fill="#FFFFFF" d="M79.983,79.7c2.518,0,3.924,1.055,3.924,2.637c0,0.217-0.043,0.387-0.076,0.568
			c3.867,0.045,7.795,0.104,11.764,0.174c0.02-0.355,0.033-0.67,0.033-0.918c0-6.271-4.98-9.789-14.709-9.789
			c-10.262,0-15.761,3.373-16.798,10.389c3.79,0.01,7.657,0.031,11.59,0.064C75.959,80.688,77.304,79.7,79.983,79.7z"/>
		<path fill="#FFFFFF" d="M156.488,85.071c-0.016,0.063-0.02,0.127-0.035,0.184c27.281,1.539,54.371,3.943,78.457,7.625l0.693-4.916
			c0.588-4.104,2.229-6.098,5.275-6.098c2.344,0,3.809,1.467,3.809,3.518c0,0.352-0.059,0.82-0.176,1.584l-0.998,7.305
			c4.012,0.688,7.922,1.412,11.719,2.18l1.35-9.836c0.236-1.584,0.352-2.992,0.352-4.105c0-6.092-3.924-9.961-10.254-9.961
			c-4.102,0-7.443,1.641-10.43,4.98l0.527-4.1h-10.959l-1.621,11.035c-1.395-7.932-7.035-12.15-16.463-12.15
			c-8.715,0-15.027,4.521-17.295,12.061c-1.42-7.873-7.053-12.061-16.445-12.061c-6.865,0-12.248,2.801-15.334,7.676l2.805-6.561
			h-11.719l-4.346,11.25c3.67,0.176,7.342,0.369,11.01,0.574L156.488,85.071z M207.967,79.817c3.107,0,4.924,2.049,4.982,5.684
			h-10.725C202.752,81.866,204.92,79.817,207.967,79.817z M174.229,79.817c3.105,0,4.922,2.049,4.98,5.684h-10.725
			C169.012,81.866,171.182,79.817,174.229,79.817z"/>
		<path fill="#FFFFFF" d="M140.662,73.431h-10.43l-4.297,10.441c5.314,0.188,10.662,0.404,16.023,0.648L140.662,73.431z"/>
		<path fill="#FFFFFF" d="M110.493,78.022l0.834,5.402c3.541,0.094,7.108,0.199,10.692,0.314l-0.928-10.309h-9.981l1.486-11.018
			h-11.953l-2.824,20.709c3.943,0.072,7.932,0.16,11.949,0.264L110.493,78.022z"/>
	</g>
	<g>
		<path fill="#FFFFFF" d="M49.762,92.651c0,2.166-1.582,3.398-4.57,3.398c-4.044,0-6.271-1.701-6.271-4.805c0-0.061,0-0.061,0-0.119
			H11.779c0,1.5,14.26,2.902,14.631,4.197c1.846,6.473,8.218,10.336,18.371,10.336c8.123,0,13.68-2.479,16.326-6.793
			c0.893,4.006,4.506,6.676,9.967,6.676c3.809,0,7.383-1.289,10.782-3.926l0.41,2.93h11.896v-0.822
			c-0.764-0.875-1.057-1.873-1.057-3.104c0-0.586,0.119-1.467,0.293-2.58l1.76-11.25c0.252-1.561,0.383-2.803,0.436-3.711
			c-3.969-0.07-7.896-0.129-11.764-0.174c-0.379,2.027-2.863,1.996-7.6,2.479c-6.768,0.682-11.181,2.125-13.468,5.092
			c-0.396-3.105-1.958-5.613-4.695-7.725c-8.471,0-16.49,0.045-23.934,0.115c2.07,1.641,4.857,3.082,8.361,4.627
			C47.007,89.485,49.762,90.188,49.762,92.651z M82.794,90.659c-0.234,4.861-2.752,7.498-6.563,7.498
			c-1.992,0-3.164-1.055-3.164-2.576C73.067,91.886,76.524,92.708,82.794,90.659z"/>
		<path fill="#FFFFFF" d="M106.913,104.546l2.855-21.16c-4.018-0.104-8.006-0.191-11.949-0.264l-2.92,21.424H106.913z"/>
		<path fill="#FFFFFF" d="M114.587,104.546h11.954l7.207-18.693l2.285,18.693h12.131l8.246-19.291
			c-3.668-0.205-7.34-0.398-11.01-0.574l-2.629,6.797l-0.813-6.957c-5.361-0.244-10.709-0.461-16.023-0.648l-3.203,7.783
			l-0.713-7.916c-3.584-0.115-7.151-0.221-10.692-0.314L114.587,104.546z"/>
		<path fill="#FFFFFF" d="M242.109,104.546h26.693l-14.049-4.607l0.479-3.486c-3.797-0.768-7.707-1.492-11.719-2.18L242.109,104.546
			z"/>
		<path fill="#FFFFFF" d="M155.77,90.952c0,8.846,6.27,14.707,16.936,14.707c8.906,0,14.883-3.691,16.875-10.197h-11.66
			c-0.527,1.582-2.17,2.521-4.57,2.521c-3.518,0-5.393-1.992-5.393-5.803c0-0.174,0-0.352,0-0.525h21.584
			c0.328,8.449,6.525,14.004,16.902,14.004c7.633,0,13.09-2.729,15.756-7.596l-0.951,6.482h12.014l1.648-11.666
			c-24.086-3.682-51.176-6.086-78.457-7.625C156.012,87.013,155.77,88.911,155.77,90.952z M201.697,91.655h21.445l-0.561,3.807
			h-10.924c-0.525,1.582-2.168,2.521-4.568,2.521c-3.518,0-5.393-1.992-5.393-5.803C201.697,92.007,201.697,91.829,201.697,91.655z"
			/>
	</g>
</g>
<g id="Layer_2">
</g>
</svg>
